<svg width="131" height="59" viewBox="0 0 131 59" fill="none" xmlns="http://www.w3.org/2000/svg">
<path d="M11.54 51.59C11.6867 51.59 11.8167 51.6467 11.93 51.76L12.99 52.91C12.4033 53.6367 11.68 54.1933 10.82 54.58C9.96667 54.9667 8.94 55.16 7.74 55.16C6.66667 55.16 5.7 54.9767 4.84 54.61C3.98667 54.2433 3.25667 53.7333 2.65 53.08C2.04333 52.4267 1.57667 51.6467 1.25 50.74C0.93 49.8333 0.77 48.8433 0.77 47.77C0.77 46.6833 0.943333 45.69 1.29 44.79C1.63667 43.8833 2.12333 43.1033 2.75 42.45C3.38333 41.7967 4.13667 41.29 5.01 40.93C5.88333 40.5633 6.85 40.38 7.91 40.38C8.96333 40.38 9.89667 40.5533 10.71 40.9C11.53 41.2467 12.2267 41.7 12.8 42.26L11.9 43.51C11.8467 43.59 11.7767 43.66 11.69 43.72C11.61 43.78 11.4967 43.81 11.35 43.81C11.25 43.81 11.1467 43.7833 11.04 43.73C10.9333 43.67 10.8167 43.6 10.69 43.52C10.5633 43.4333 10.4167 43.34 10.25 43.24C10.0833 43.14 9.89 43.05 9.67 42.97C9.45 42.8833 9.19333 42.8133 8.9 42.76C8.61333 42.7 8.28 42.67 7.9 42.67C7.25333 42.67 6.66 42.7867 6.12 43.02C5.58667 43.2467 5.12667 43.58 4.74 44.02C4.35333 44.4533 4.05333 44.9867 3.84 45.62C3.62667 46.2467 3.52 46.9633 3.52 47.77C3.52 48.5833 3.63333 49.3067 3.86 49.94C4.09333 50.5733 4.40667 51.1067 4.8 51.54C5.19333 51.9733 5.65667 52.3067 6.19 52.54C6.72333 52.7667 7.29667 52.88 7.91 52.88C8.27667 52.88 8.60667 52.86 8.9 52.82C9.2 52.78 9.47333 52.7167 9.72 52.63C9.97333 52.5433 10.21 52.4333 10.43 52.3C10.6567 52.16 10.88 51.99 11.1 51.79C11.1667 51.73 11.2367 51.6833 11.31 51.65C11.3833 51.61 11.46 51.59 11.54 51.59ZM16.7336 46.52C17.0536 45.9067 17.4336 45.4267 17.8736 45.08C18.3136 44.7267 18.8336 44.55 19.4336 44.55C19.9069 44.55 20.2869 44.6533 20.5736 44.86L20.4136 46.71C20.3803 46.83 20.3303 46.9167 20.2636 46.97C20.2036 47.0167 20.1203 47.04 20.0136 47.04C19.9136 47.04 19.7636 47.0233 19.5636 46.99C19.3703 46.9567 19.1803 46.94 18.9936 46.94C18.7203 46.94 18.4769 46.98 18.2636 47.06C18.0503 47.14 17.8569 47.2567 17.6836 47.41C17.5169 47.5567 17.3669 47.7367 17.2336 47.95C17.1069 48.1633 16.9869 48.4067 16.8736 48.68V55H14.4036V44.74H15.8536C16.1069 44.74 16.2836 44.7867 16.3836 44.88C16.4836 44.9667 16.5503 45.1267 16.5836 45.36L16.7336 46.52ZM31.1845 44.74L25.5945 57.82C25.5212 57.9933 25.4245 58.1233 25.3045 58.21C25.1912 58.3033 25.0145 58.35 24.7745 58.35H22.9345L24.8545 54.23L20.7045 44.74H22.8745C23.0679 44.74 23.2179 44.7867 23.3245 44.88C23.4379 44.9733 23.5212 45.08 23.5745 45.2L25.7545 50.52C25.8279 50.7 25.8879 50.88 25.9345 51.06C25.9879 51.24 26.0379 51.4233 26.0845 51.61C26.1445 51.4233 26.2045 51.24 26.2645 51.06C26.3245 50.8733 26.3912 50.69 26.4645 50.51L28.5245 45.2C28.5779 45.0667 28.6645 44.9567 28.7845 44.87C28.9112 44.7833 29.0512 44.74 29.2045 44.74H31.1845ZM34.8814 52.34C35.1614 52.68 35.4647 52.92 35.7914 53.06C36.1247 53.2 36.4847 53.27 36.8714 53.27C37.2447 53.27 37.5814 53.2 37.8814 53.06C38.1814 52.92 38.4347 52.7067 38.6414 52.42C38.8547 52.1333 39.0181 51.7733 39.1314 51.34C39.2447 50.9 39.3014 50.3833 39.3014 49.79C39.3014 49.19 39.2514 48.6833 39.1514 48.27C39.0581 47.85 38.9214 47.51 38.7414 47.25C38.5614 46.99 38.3414 46.8 38.0814 46.68C37.8281 46.56 37.5381 46.5 37.2114 46.5C36.6981 46.5 36.2614 46.61 35.9014 46.83C35.5414 47.0433 35.2014 47.3467 34.8814 47.74V52.34ZM34.7514 46.14C35.1714 45.6667 35.6481 45.2833 36.1814 44.99C36.7147 44.6967 37.3414 44.55 38.0614 44.55C38.6214 44.55 39.1314 44.6667 39.5914 44.9C40.0581 45.1333 40.4581 45.4733 40.7914 45.92C41.1314 46.36 41.3914 46.9067 41.5714 47.56C41.7581 48.2067 41.8514 48.95 41.8514 49.79C41.8514 50.5567 41.7481 51.2667 41.5414 51.92C41.3347 52.5733 41.0381 53.14 40.6514 53.62C40.2714 54.1 39.8081 54.4767 39.2614 54.75C38.7214 55.0167 38.1147 55.15 37.4414 55.15C36.8681 55.15 36.3781 55.0633 35.9714 54.89C35.5647 54.71 35.2014 54.4633 34.8814 54.15V58.35H32.4114V44.74H33.9214C34.2414 44.74 34.4514 44.89 34.5514 45.19L34.7514 46.14ZM47.0619 55.16C46.1685 55.16 45.4819 54.91 45.0019 54.41C44.5285 53.9033 44.2919 53.2067 44.2919 52.32V46.59H43.2419C43.1085 46.59 42.9952 46.5467 42.9019 46.46C42.8085 46.3733 42.7619 46.2433 42.7619 46.07V45.09L44.4119 44.82L44.9319 42.02C44.9652 41.8867 45.0285 41.7833 45.1219 41.71C45.2152 41.6367 45.3352 41.6 45.4819 41.6H46.7619V44.83H49.5019V46.59H46.7619V52.15C46.7619 52.47 46.8385 52.72 46.9919 52.9C47.1519 53.08 47.3685 53.17 47.6419 53.17C47.7952 53.17 47.9219 53.1533 48.0219 53.12C48.1285 53.08 48.2185 53.04 48.2919 53C48.3719 52.96 48.4419 52.9233 48.5019 52.89C48.5619 52.85 48.6219 52.83 48.6819 52.83C48.7552 52.83 48.8152 52.85 48.8619 52.89C48.9085 52.9233 48.9585 52.9767 49.0119 53.05L49.7519 54.25C49.3919 54.55 48.9785 54.7767 48.5119 54.93C48.0452 55.0833 47.5619 55.16 47.0619 55.16ZM55.5452 44.58C56.3052 44.58 56.9952 44.7033 57.6152 44.95C58.2418 45.1967 58.7752 45.5467 59.2152 46C59.6618 46.4533 60.0052 47.0067 60.2452 47.66C60.4852 48.3133 60.6052 49.0433 60.6052 49.85C60.6052 50.6633 60.4852 51.3967 60.2452 52.05C60.0052 52.7033 59.6618 53.26 59.2152 53.72C58.7752 54.18 58.2418 54.5333 57.6152 54.78C56.9952 55.0267 56.3052 55.15 55.5452 55.15C54.7785 55.15 54.0818 55.0267 53.4552 54.78C52.8285 54.5333 52.2918 54.18 51.8452 53.72C51.4052 53.26 51.0618 52.7033 50.8152 52.05C50.5752 51.3967 50.4552 50.6633 50.4552 49.85C50.4552 49.0433 50.5752 48.3133 50.8152 47.66C51.0618 47.0067 51.4052 46.4533 51.8452 46C52.2918 45.5467 52.8285 45.1967 53.4552 44.95C54.0818 44.7033 54.7785 44.58 55.5452 44.58ZM55.5452 53.25C56.3985 53.25 57.0285 52.9633 57.4352 52.39C57.8485 51.8167 58.0552 50.9767 58.0552 49.87C58.0552 48.7633 57.8485 47.92 57.4352 47.34C57.0285 46.76 56.3985 46.47 55.5452 46.47C54.6785 46.47 54.0352 46.7633 53.6152 47.35C53.2018 47.93 52.9952 48.77 52.9952 49.87C52.9952 50.97 53.2018 51.81 53.6152 52.39C54.0352 52.9633 54.6785 53.25 55.5452 53.25ZM77.2373 42.75H72.8773V55H70.1873V42.75H65.8273V40.54H77.2373V42.75ZM79.0578 46.52C79.3778 45.9067 79.7578 45.4267 80.1978 45.08C80.6378 44.7267 81.1578 44.55 81.7578 44.55C82.2311 44.55 82.6111 44.6533 82.8978 44.86L82.7378 46.71C82.7045 46.83 82.6545 46.9167 82.5878 46.97C82.5278 47.0167 82.4445 47.04 82.3378 47.04C82.2378 47.04 82.0878 47.0233 81.8878 46.99C81.6945 46.9567 81.5045 46.94 81.3178 46.94C81.0445 46.94 80.8011 46.98 80.5878 47.06C80.3745 47.14 80.1811 47.2567 80.0078 47.41C79.8411 47.5567 79.6911 47.7367 79.5578 47.95C79.4311 48.1633 79.3111 48.4067 79.1978 48.68V55H76.7278V44.74H78.1778C78.4311 44.74 78.6078 44.7867 78.7078 44.88C78.8078 44.9667 78.8745 45.1267 78.9078 45.36L79.0578 46.52ZM89.472 50.62C88.7587 50.6533 88.1587 50.7167 87.672 50.81C87.1854 50.8967 86.7954 51.01 86.502 51.15C86.2087 51.29 85.9987 51.4533 85.872 51.64C85.7454 51.8267 85.682 52.03 85.682 52.25C85.682 52.6833 85.8087 52.9933 86.062 53.18C86.322 53.3667 86.6587 53.46 87.072 53.46C87.5787 53.46 88.0154 53.37 88.382 53.19C88.7554 53.0033 89.1187 52.7233 89.472 52.35V50.62ZM83.812 46.17C84.992 45.09 86.412 44.55 88.072 44.55C88.672 44.55 89.2087 44.65 89.682 44.85C90.1554 45.0433 90.5554 45.3167 90.882 45.67C91.2087 46.0167 91.4554 46.4333 91.622 46.92C91.7954 47.4067 91.882 47.94 91.882 48.52V55H90.762C90.5287 55 90.3487 54.9667 90.222 54.9C90.0954 54.8267 89.9954 54.6833 89.922 54.47L89.702 53.73C89.442 53.9633 89.1887 54.17 88.942 54.35C88.6954 54.5233 88.4387 54.67 88.172 54.79C87.9054 54.91 87.6187 55 87.312 55.06C87.012 55.1267 86.6787 55.16 86.312 55.16C85.8787 55.16 85.4787 55.1033 85.112 54.99C84.7454 54.87 84.4287 54.6933 84.162 54.46C83.8954 54.2267 83.6887 53.9367 83.542 53.59C83.3954 53.2433 83.322 52.84 83.322 52.38C83.322 52.12 83.3654 51.8633 83.452 51.61C83.5387 51.35 83.6787 51.1033 83.872 50.87C84.072 50.6367 84.3287 50.4167 84.642 50.21C84.9554 50.0033 85.3387 49.8233 85.792 49.67C86.252 49.5167 86.7854 49.3933 87.392 49.3C87.9987 49.2 88.692 49.14 89.472 49.12V48.52C89.472 47.8333 89.3254 47.3267 89.032 47C88.7387 46.6667 88.3154 46.5 87.762 46.5C87.362 46.5 87.0287 46.5467 86.762 46.64C86.502 46.7333 86.272 46.84 86.072 46.96C85.872 47.0733 85.6887 47.1767 85.522 47.27C85.362 47.3633 85.182 47.41 84.982 47.41C84.8087 47.41 84.662 47.3667 84.542 47.28C84.422 47.1867 84.3254 47.08 84.252 46.96L83.812 46.17ZM101.558 46.91C101.485 47.0033 101.412 47.0767 101.338 47.13C101.272 47.1833 101.172 47.21 101.038 47.21C100.912 47.21 100.788 47.1733 100.668 47.1C100.548 47.02 100.405 46.9333 100.238 46.84C100.072 46.74 99.8716 46.6533 99.6383 46.58C99.4116 46.5 99.1283 46.46 98.7883 46.46C98.3549 46.46 97.9749 46.54 97.6483 46.7C97.3216 46.8533 97.0483 47.0767 96.8283 47.37C96.6149 47.6633 96.4549 48.02 96.3483 48.44C96.2416 48.8533 96.1883 49.3233 96.1883 49.85C96.1883 50.3967 96.2449 50.8833 96.3583 51.31C96.4783 51.7367 96.6483 52.0967 96.8683 52.39C97.0883 52.6767 97.3549 52.8967 97.6683 53.05C97.9816 53.1967 98.3349 53.27 98.7283 53.27C99.1216 53.27 99.4383 53.2233 99.6783 53.13C99.9249 53.03 100.132 52.9233 100.298 52.81C100.465 52.69 100.608 52.5833 100.728 52.49C100.855 52.39 100.995 52.34 101.148 52.34C101.348 52.34 101.498 52.4167 101.598 52.57L102.308 53.47C102.035 53.79 101.738 54.06 101.418 54.28C101.098 54.4933 100.765 54.6667 100.418 54.8C100.078 54.9267 99.7249 55.0167 99.3583 55.07C98.9983 55.1233 98.6383 55.15 98.2783 55.15C97.6449 55.15 97.0483 55.0333 96.4883 54.8C95.9283 54.56 95.4383 54.2133 95.0183 53.76C94.5983 53.3067 94.2649 52.7533 94.0183 52.1C93.7783 51.44 93.6583 50.69 93.6583 49.85C93.6583 49.0967 93.7649 48.4 93.9783 47.76C94.1983 47.1133 94.5183 46.5567 94.9383 46.09C95.3583 45.6167 95.8783 45.2467 96.4983 44.98C97.1183 44.7133 97.8316 44.58 98.6383 44.58C99.4049 44.58 100.075 44.7033 100.648 44.95C101.228 45.1967 101.748 45.55 102.208 46.01L101.558 46.91ZM106.327 40.14V48.65H106.787C106.953 48.65 107.083 48.63 107.177 48.59C107.277 48.5433 107.377 48.4533 107.477 48.32L110.027 45.17C110.133 45.03 110.25 44.9233 110.377 44.85C110.51 44.7767 110.68 44.74 110.887 44.74H113.147L109.957 48.55C109.73 48.85 109.483 49.08 109.217 49.24C109.357 49.34 109.48 49.4567 109.587 49.59C109.7 49.7233 109.807 49.8667 109.907 50.02L113.327 55H111.097C110.903 55 110.737 54.97 110.597 54.91C110.457 54.8433 110.34 54.7267 110.247 54.56L107.627 50.67C107.533 50.5167 107.437 50.4167 107.337 50.37C107.237 50.3233 107.087 50.3 106.887 50.3H106.327V55H103.857V40.14H106.327ZM120.623 48.69C120.623 48.37 120.576 48.07 120.483 47.79C120.396 47.5033 120.263 47.2533 120.083 47.04C119.903 46.8267 119.673 46.66 119.393 46.54C119.12 46.4133 118.8 46.35 118.433 46.35C117.72 46.35 117.156 46.5533 116.743 46.96C116.336 47.3667 116.076 47.9433 115.963 48.69H120.623ZM115.913 50.18C115.953 50.7067 116.046 51.1633 116.193 51.55C116.34 51.93 116.533 52.2467 116.773 52.5C117.013 52.7467 117.296 52.9333 117.623 53.06C117.956 53.18 118.323 53.24 118.723 53.24C119.123 53.24 119.466 53.1933 119.753 53.1C120.046 53.0067 120.3 52.9033 120.513 52.79C120.733 52.6767 120.923 52.5733 121.083 52.48C121.25 52.3867 121.41 52.34 121.563 52.34C121.77 52.34 121.923 52.4167 122.023 52.57L122.733 53.47C122.46 53.79 122.153 54.06 121.813 54.28C121.473 54.4933 121.116 54.6667 120.743 54.8C120.376 54.9267 120 55.0167 119.613 55.07C119.233 55.1233 118.863 55.15 118.503 55.15C117.79 55.15 117.126 55.0333 116.513 54.8C115.9 54.56 115.366 54.21 114.913 53.75C114.46 53.2833 114.103 52.71 113.843 52.03C113.583 51.3433 113.453 50.55 113.453 49.65C113.453 48.95 113.566 48.2933 113.793 47.68C114.02 47.06 114.343 46.5233 114.763 46.07C115.19 45.61 115.706 45.2467 116.313 44.98C116.926 44.7133 117.616 44.58 118.383 44.58C119.03 44.58 119.626 44.6833 120.173 44.89C120.72 45.0967 121.19 45.4 121.583 45.8C121.976 46.1933 122.283 46.68 122.503 47.26C122.73 47.8333 122.843 48.49 122.843 49.23C122.843 49.6033 122.803 49.8567 122.723 49.99C122.643 50.1167 122.49 50.18 122.263 50.18H115.913ZM127.027 46.52C127.347 45.9067 127.727 45.4267 128.167 45.08C128.607 44.7267 129.127 44.55 129.727 44.55C130.2 44.55 130.58 44.6533 130.867 44.86L130.707 46.71C130.673 46.83 130.623 46.9167 130.557 46.97C130.497 47.0167 130.413 47.04 130.307 47.04C130.207 47.04 130.057 47.0233 129.857 46.99C129.663 46.9567 129.473 46.94 129.287 46.94C129.013 46.94 128.77 46.98 128.557 47.06C128.343 47.14 128.15 47.2567 127.977 47.41C127.81 47.5567 127.66 47.7367 127.527 47.95C127.4 48.1633 127.28 48.4067 127.167 48.68V55H124.697V44.74H126.147C126.4 44.74 126.577 44.7867 126.677 44.88C126.777 44.9667 126.843 45.1267 126.877 45.36L127.027 46.52Z" fill="#10215F"/>
<path fill-rule="evenodd" clip-rule="evenodd" d="M56.8395 29.6339L75 17.3042V12.3486L56.8395 0.0189209V4.88214L71.4865 14.8264L56.8395 24.7707V29.6339Z" fill="#25E8DC"/>
</svg>
